<svg width="119" height="20" viewBox="0 0 119 20" fill="none" xmlns="http://www.w3.org/2000/svg">
<path d="M0.82 19H4.356V11.408H10.7V7.872H4.356V3.816H12.26V0.279999H0.82V19ZM17.4793 19.39C18.5626 19.39 19.4726 19.2253 20.2093 18.896C20.9546 18.558 21.6393 18.0207 22.2633 17.284V19H25.3573V10.42C25.3573 9.77867 25.3313 9.198 25.2793 8.678C25.2273 8.158 25.0626 7.638 24.7853 7.118C24.2913 6.182 23.5633 5.52333 22.6013 5.142C21.6393 4.76067 20.5386 4.57 19.2993 4.57C17.6093 4.57 16.2746 4.934 15.2953 5.662C14.316 6.39 13.6486 7.33467 13.2933 8.496L16.4913 9.51C16.7166 8.86867 17.111 8.42233 17.6743 8.171C18.2376 7.91967 18.7793 7.794 19.2993 7.794C20.1313 7.794 20.751 7.95 21.1583 8.262C21.5656 8.56533 21.804 9.04633 21.8733 9.705C20.556 9.89567 19.3946 10.082 18.3893 10.264C17.384 10.4373 16.5433 10.6453 15.8673 10.888C14.7406 11.304 13.9476 11.8717 13.4883 12.591C13.029 13.3017 12.7993 14.1467 12.7993 15.126C12.7993 15.906 12.977 16.621 13.3323 17.271C13.6963 17.9123 14.225 18.428 14.9183 18.818C15.6203 19.1993 16.474 19.39 17.4793 19.39ZM18.2333 16.608C17.6266 16.608 17.1456 16.4737 16.7903 16.205C16.435 15.9277 16.2573 15.5507 16.2573 15.074C16.2573 14.7187 16.37 14.4153 16.5953 14.164C16.8206 13.904 17.1933 13.67 17.7133 13.462C18.112 13.3147 18.6016 13.1803 19.1823 13.059C19.7716 12.929 20.66 12.7643 21.8473 12.565C21.8386 12.903 21.8126 13.2757 21.7693 13.683C21.726 14.0817 21.6306 14.4327 21.4833 14.736C21.388 14.9353 21.206 15.1823 20.9373 15.477C20.6773 15.7717 20.322 16.036 19.8713 16.27C19.4293 16.4953 18.8833 16.608 18.2333 16.608ZM33.7035 19.39C35.5408 19.39 36.9795 18.9783 38.0195 18.155C39.0595 17.3317 39.5795 16.2007 39.5795 14.762C39.5795 13.67 39.2415 12.8077 38.5655 12.175C37.8982 11.5423 36.7628 11.018 35.1595 10.602C34.0675 10.3247 33.2528 10.0993 32.7155 9.926C32.1868 9.75267 31.8358 9.58367 31.6625 9.419C31.4978 9.25433 31.4155 9.05067 31.4155 8.808C31.4155 8.40067 31.6105 8.08867 32.0005 7.872C32.3992 7.65533 32.9235 7.56867 33.5735 7.612C34.9515 7.716 35.7055 8.30533 35.8355 9.38L39.4495 8.73C39.2675 7.456 38.6435 6.44633 37.5775 5.701C36.5115 4.947 35.1508 4.57 33.4955 4.57C31.7968 4.57 30.4405 4.96867 29.4265 5.766C28.4125 6.56333 27.9055 7.638 27.9055 8.99C27.9055 10.0647 28.2565 10.914 28.9585 11.538C29.6605 12.1533 30.8695 12.682 32.5855 13.124C33.5995 13.3927 34.3448 13.6093 34.8215 13.774C35.3068 13.9387 35.6188 14.1077 35.7575 14.281C35.8962 14.4457 35.9655 14.6667 35.9655 14.944C35.9655 15.386 35.7922 15.7327 35.4455 15.984C35.0988 16.2267 34.6048 16.348 33.9635 16.348C33.1835 16.348 32.5378 16.1617 32.0265 15.789C31.5238 15.4163 31.1988 14.9007 31.0515 14.242L27.4375 14.788C27.6715 16.2527 28.3302 17.388 29.4135 18.194C30.5055 18.9913 31.9355 19.39 33.7035 19.39ZM50.3402 19V16.062C49.5082 16.1747 48.7499 16.2093 48.0652 16.166C47.3806 16.1227 46.8822 15.854 46.5702 15.36C46.4056 15.1 46.3146 14.7533 46.2972 14.32C46.2886 13.878 46.2842 13.384 46.2842 12.838V7.69H50.3402V4.96H46.2842V1.06H42.7482V4.96H40.3562V7.69H42.7482V13.046C42.7482 13.8867 42.7569 14.6407 42.7742 15.308C42.7916 15.9667 42.9736 16.6167 43.3202 17.258C43.7016 17.9427 44.2562 18.441 44.9842 18.753C45.7209 19.0563 46.5529 19.2167 47.4802 19.234C48.4162 19.26 49.3696 19.182 50.3402 19ZM52.949 19H56.485V11.278H64.857V19H68.393V0.279999H64.857V7.976H56.485V0.279999H52.949V19ZM76.7487 19.416C77.7627 19.416 78.6467 19.247 79.4007 18.909C80.1547 18.571 80.7874 18.1203 81.2987 17.557V19H84.4187V4.96H80.8567V12.084C80.8567 12.9507 80.7571 13.6527 80.5577 14.19C80.3671 14.7187 80.1201 15.1217 79.8167 15.399C79.5134 15.6677 79.1884 15.8497 78.8417 15.945C78.4951 16.0403 78.1701 16.088 77.8667 16.088C77.1127 16.088 76.5277 15.919 76.1117 15.581C75.7044 15.243 75.4097 14.8227 75.2277 14.32C75.0457 13.8173 74.9374 13.319 74.9027 12.825C74.8681 12.3223 74.8507 11.9107 74.8507 11.59V4.96H71.2627V12.838C71.2627 13.072 71.2801 13.4447 71.3147 13.956C71.3494 14.4673 71.4491 15.035 71.6137 15.659C71.7784 16.2743 72.0514 16.868 72.4327 17.44C72.8227 18.012 73.3644 18.4843 74.0577 18.857C74.7511 19.2297 75.6481 19.416 76.7487 19.416ZM87.506 19H91.094V11.876C91.094 11.0007 91.1894 10.2987 91.38 9.77C91.5794 9.24133 91.8307 8.84267 92.134 8.574C92.4374 8.29667 92.7624 8.11033 93.109 8.015C93.4557 7.91967 93.7807 7.872 94.084 7.872C94.838 7.872 95.4187 8.041 95.826 8.379C96.242 8.717 96.541 9.13733 96.723 9.64C96.905 10.1427 97.0134 10.6453 97.048 11.148C97.0827 11.642 97.1 12.0493 97.1 12.37V19H100.688V11.122C100.688 10.888 100.671 10.5153 100.636 10.004C100.601 9.49267 100.502 8.92933 100.337 8.314C100.172 7.69 99.895 7.092 99.505 6.52C99.1237 5.948 98.5864 5.47567 97.893 5.103C97.1997 4.73033 96.3027 4.544 95.202 4.544C94.188 4.544 93.304 4.713 92.55 5.051C91.796 5.389 91.1634 5.83967 90.652 6.403V4.96H87.506V19ZM111.965 19V16.062C111.133 16.1747 110.375 16.2093 109.69 16.166C109.006 16.1227 108.507 15.854 108.195 15.36C108.031 15.1 107.94 14.7533 107.922 14.32C107.914 13.878 107.909 13.384 107.909 12.838V7.69H111.965V4.96H107.909V1.06H104.373V4.96H101.981V7.69H104.373V13.046C104.373 13.8867 104.382 14.6407 104.399 15.308C104.417 15.9667 104.599 16.6167 104.945 17.258C105.327 17.9427 105.881 18.441 106.609 18.753C107.346 19.0563 108.178 19.2167 109.105 19.234C110.041 19.26 110.995 19.182 111.965 19Z" fill="#1A093F"/>
<path d="M115.146 19H118.682V15.464H115.146V19Z" fill="#FA3263"/>
</svg>
