<svg width="98" height="33" viewBox="0 0 98 33" fill="none" xmlns="http://www.w3.org/2000/svg">
<path d="M38.562 11.602C40.0353 10.3367 41.734 9.70402 43.658 9.70402C45.582 9.70402 47.0986 10.3714 48.208 11.706C49.3173 13.0234 49.69 14.644 49.326 16.568C49.2913 16.9494 49.17 17.4087 48.962 17.946H39.134C39.2033 18.778 39.524 19.3934 40.096 19.792C40.668 20.1907 41.3873 20.39 42.254 20.39C43.554 20.39 44.62 19.948 45.452 19.064L47.818 20.962C46.362 22.6087 44.4206 23.432 41.994 23.432C39.8446 23.432 38.2066 22.7474 37.08 21.378C35.9706 20.0087 35.5806 18.3187 35.91 16.308C36.2046 14.4187 37.0886 12.85 38.562 11.602ZM39.602 15.32H46.206C46.1886 14.436 45.92 13.786 45.4 13.37C44.8973 12.9367 44.2473 12.72 43.45 12.72C42.5833 12.72 41.812 12.9454 41.136 13.396C40.4773 13.8467 39.966 14.488 39.602 15.32Z" fill="#18232F"/>
<path d="M55.1079 23.432C52.4559 23.432 50.6966 22.366 49.8299 20.234L52.8459 18.726C53.1926 19.8354 54.0419 20.39 55.3939 20.39C56.5206 20.39 57.1532 20.052 57.2919 19.376C57.3439 19.012 57.1532 18.7174 56.7199 18.492C56.2866 18.2667 55.7492 18.0587 55.1079 17.868C54.4666 17.6774 53.8339 17.452 53.2099 17.192C52.5859 16.9147 52.0919 16.464 51.7279 15.84C51.3639 15.216 51.2599 14.4447 51.4159 13.526C51.6412 12.3127 52.2566 11.3767 53.2619 10.718C54.2846 10.042 55.4286 9.70402 56.6939 9.70402C57.8206 9.70402 58.8086 9.94669 59.6579 10.432C60.5072 10.9174 61.1312 11.5934 61.5299 12.46L58.5139 13.968C58.2019 13.1014 57.5346 12.668 56.5119 12.668C55.5066 12.668 54.9259 13.0407 54.7699 13.786C54.7006 14.1847 54.8739 14.4967 55.2899 14.722C55.7232 14.9474 56.2606 15.1467 56.9019 15.32C57.5606 15.4934 58.2019 15.71 58.8259 15.97C59.4672 16.2127 59.9699 16.646 60.3339 17.27C60.6979 17.8767 60.7932 18.6654 60.6199 19.636C60.3946 20.9014 59.7792 21.8547 58.7739 22.496C57.7859 23.12 56.5639 23.432 55.1079 23.432Z" fill="#18232F"/>
<path d="M71.5637 9.70402C73.0197 9.70402 74.1463 10.1894 74.9437 11.16C75.741 12.1307 75.9923 13.4394 75.6977 15.086L74.2937 23.068H70.9397L72.2657 15.502C72.4217 14.618 72.3003 13.9507 71.9017 13.5C71.5203 13.0494 70.9397 12.824 70.1597 12.824C69.3623 12.824 68.6603 13.058 68.0537 13.526C67.4643 13.994 67.0483 14.696 66.8057 15.632L65.5057 23.068H62.1517L64.4397 10.068H67.7937L67.5337 11.472C68.5563 10.2934 69.8997 9.70402 71.5637 9.70402Z" fill="#18232F"/>
<path d="M82.9308 7.91002C82.4628 8.30869 81.9428 8.50802 81.3708 8.50802C80.7988 8.50802 80.3481 8.30869 80.0188 7.91002C79.6894 7.49402 79.5681 7.00869 79.6548 6.45402C79.7414 5.88202 80.0188 5.39669 80.4868 4.99802C80.9548 4.58202 81.4748 4.37402 82.0468 4.37402C82.6188 4.37402 83.0694 4.58202 83.3988 4.99802C83.7454 5.41402 83.8754 5.89936 83.7888 6.45402C83.6848 7.02602 83.3988 7.51136 82.9308 7.91002ZM77.1068 23.068L79.3948 10.068H82.7488L80.4608 23.068H77.1068Z" fill="#18232F"/>
<path d="M97.4406 10.068L91.1746 16.49L95.3086 23.068H91.6686L87.9506 16.958L86.8846 23.068H83.5306L86.7286 4.86802H90.0826L88.2106 15.554L93.4626 10.068H97.4406Z" fill="#18232F"/>
<circle cx="16" cy="16.0681" r="16" fill="url(#paint0_linear)"/>
<path d="M10.2501 -8.21349e-05C9.34347 -8.20556e-05 8.89013 0.249252 8.89013 0.747919L8.89014 22.8479C8.89014 23.2106 8.96947 23.4713 9.12814 23.6299C9.2868 23.7886 9.54747 23.8679 9.91014 23.8679L16.8121 23.8679C18.8068 23.8679 20.5635 23.3919 22.0821 22.4399C23.6235 21.4879 24.3941 19.7426 24.3941 17.2039C24.3941 15.3226 23.9521 13.8606 23.0681 12.8179C22.1841 11.7753 21.1981 11.0726 20.1101 10.7099C19.0221 10.3699 18.0361 10.1999 17.1521 10.1999L11.8821 10.1999L11.8821 0.747919C11.8821 0.249252 11.4288 -8.22379e-05 10.5221 -8.21587e-05L10.2501 -8.21349e-05ZM17.1861 12.7839C18.1608 12.7839 19.0901 13.1126 19.9741 13.7699C20.8581 14.4273 21.3001 15.5719 21.3001 17.2039C21.3001 18.7226 20.8468 19.7766 19.9401 20.3659C19.0335 20.9779 17.9568 21.2839 16.7101 21.2839L11.8821 21.2839L11.8821 12.7839L17.1861 12.7839Z" fill="white"/>
<defs>
<linearGradient id="paint0_linear" x1="16" y1="0.0681152" x2="16" y2="32.0681" gradientUnits="userSpaceOnUse">
<stop stop-color="#746BFF"/>
<stop offset="1" stop-color="#9C52FF"/>
</linearGradient>
</defs>
</svg>
