<svg width="240" height="249" viewBox="0 0 240 249" fill="none" xmlns="http://www.w3.org/2000/svg">
<path opacity="0.2" d="M64.295 62.9613C70.8827 49.7763 78.9586 37.5525 87.4935 25.6573C88.4691 25.9063 87.6122 26.5152 87.9599 26.8986C88.5131 27.1538 89.1282 25.8196 89.8395 27.0065C90.4931 28.0955 90.1051 28.9155 89.6452 29.7584C87.2229 34.2034 83.7236 37.9584 81.6113 42.6462C80.8892 44.2489 80.5738 46.2127 78.7893 47.4602C77.692 48.2288 77.9501 50.1714 76.9811 51.4513C76.3744 52.2526 76.037 53.3735 75.3626 54.2782C72.7065 57.8161 71.0854 62.0224 70.6802 66.4278C70.6005 67.2345 70.2652 67.9633 69.5182 67.989C67.4797 68.0575 65.4553 68.902 63.4592 67.1175C62.0067 65.8227 61.8739 64.6499 62.2843 63.0883C63.2732 59.3271 65.2349 56.0075 67.1601 52.6913C69.4127 48.8114 71.9704 45.115 74.3558 41.3203C77.5646 36.2158 81.1564 31.4018 84.5648 26.4463C84.8889 25.9757 85.1998 25.0025 85.9107 25.4303C86.446 25.7528 85.882 26.5243 85.5766 26.9928C83.6506 29.9489 81.5884 32.8049 79.4761 35.6356C77.5018 38.4024 75.6949 41.2849 74.0649 44.2676C71.333 49.0268 68.3234 53.6275 65.8521 58.5349C65.1457 59.9363 64.4485 61.3536 64.295 62.9613Z" fill="black"/>
<path opacity="0.2" d="M53.8818 119.864C52.6439 120.86 51.7491 119.31 51.3574 118.995C50.2987 118.145 48.6391 119.023 48.2258 118.016C47.6 116.492 46.2504 115.202 46.8098 113.16C47.8921 109.211 49.5326 105.493 51.0573 101.722C52.1629 98.9887 53.2153 96.2285 54.8314 93.7298C55.5514 92.6155 56.3793 91.6328 57.6011 91.0738C58.8548 90.499 59.9553 90.4579 61.1622 91.4888C62.0557 92.2532 63.2077 92.7558 64.0348 93.6538C64.8233 94.5083 65.4458 95.4018 64.5179 96.5663C63.8663 97.3826 63.9842 98.4533 63.6559 99.385C62.337 103.126 61.8349 107.155 59.7188 110.615C58.1493 113.181 56.9898 115.941 55.78 118.682C55.4335 119.467 55.0982 120.415 53.8818 119.864Z" fill="black"/>
<path opacity="0.2" d="M131.92 91.8438C131.63 92.4999 131.442 92.9228 131.261 93.3295C131.476 93.6104 131.676 93.4432 131.888 93.383C132.326 93.2585 132.477 92.4198 133.009 92.7555C133.65 93.161 132.824 93.6469 132.874 94.1275C133.576 94.2902 133.763 93.422 134.337 93.3988C135.225 94.7645 134.759 95.8647 133.932 97.0898C131.633 100.384 129.781 103.968 128.424 107.749C127.929 109.195 126.077 109.902 126.041 111.58C125.996 113.709 125.004 115.558 123.885 117.081C121.957 119.71 121.545 122.803 120.397 125.661C120.074 126.466 120.516 127.456 119.722 128.115C119.465 128.327 119.063 128.812 118.895 128.405C118.321 127.008 117.201 127.681 116.275 127.451C114.555 127.02 114.217 125.334 114.049 123.851C113.785 121.513 114.459 119.252 115.408 117.169C119.038 109.191 123.261 101.537 128.485 94.4765C129.281 93.3975 129.995 92.0471 131.92 91.8438Z" fill="black"/>
<path opacity="0.2" d="M107.863 60.1643C107.465 61.4056 107.08 62.7058 106.632 63.9823C103.795 72.0844 100.117 79.8079 96.1288 87.397C94.6003 90.3066 92.8391 93.0987 91.6833 96.2033C91.3513 97.0923 90.7578 97.7944 89.6971 96.8482C89.41 96.6433 89.0871 96.4937 88.7451 96.4071C86.5456 95.6281 85.6857 93.9416 86.375 91.6529C87.0805 89.3048 88.3907 87.2485 89.6585 85.1876C95.0224 76.468 100.068 67.5849 103.92 58.0702C104.408 56.8646 104.549 56.8667 105.405 57.7839C105.461 57.8367 105.526 57.8781 105.598 57.9055C105.67 57.9329 105.746 57.9459 105.823 57.9436C107.42 57.8025 107.565 58.9716 107.863 60.1643Z" fill="black"/>
<path opacity="0.2" d="M54.0781 151.167C52.6156 154.765 50.224 157.52 48.8308 160.778C47.4223 164.073 45.7183 167.248 44.8327 170.764C46.115 167.945 47.3895 165.123 48.681 162.308C50.1625 159.077 52.0425 156.076 53.8893 153.047C54.8164 151.528 55.8576 151.605 56.9009 152.442C57.9201 153.259 58.1318 154.636 57.1719 155.596C55.2164 157.552 54.1167 160.05 53.4025 162.504C52.1575 166.778 49.9725 170.739 49.3139 175.203C49.162 176.232 48.4171 177.109 48.2643 178.255C48.0925 179.544 48.0257 180.649 48.6644 181.85C49.0379 182.548 49.9509 183.466 49.1379 184.245C48.4739 184.882 47.5007 185.349 46.3935 184.769C45.971 184.547 45.356 184.692 44.8277 184.674C41.7393 184.57 39.917 182.558 40.3773 179.445C40.9944 175.269 42.5635 171.363 44.2197 167.506C46.3898 162.451 48.7499 157.494 51.962 152.993C52.438 152.326 52.8331 151.593 54.0781 151.167Z" fill="black"/>
<path opacity="0.2" d="M138.264 190.552C134.083 190.544 132.823 188.713 134.239 185.245C135.345 182.534 137.227 180.3 139.043 178.061C143.284 172.836 147.698 167.762 152.397 162.933C153.546 161.752 154.941 161.33 156.373 160.892C156.874 160.739 157.989 160.439 157.946 160.874C157.858 161.765 158.752 162.575 157.946 163.527C154.352 167.784 151.144 172.34 147.82 176.807C146.355 178.777 144.734 180.634 143.323 182.64C142.368 183.997 141.394 185.462 142.361 187.29C142.477 187.509 142.417 188.081 142.314 188.115C140.664 188.666 139.666 190.424 138.264 190.552Z" fill="black"/>
<path opacity="0.2" d="M181.009 95.8668C183.156 93.4544 184.492 90.5204 186.611 88.1233C187.285 87.4651 187.921 86.769 188.516 86.0384C189.397 84.7734 190.301 85.7383 190.884 86.1363C191.044 86.2586 191.176 86.4119 191.274 86.5869C191.372 86.762 191.433 86.9552 191.454 87.1546C191.475 87.3541 191.455 87.5558 191.396 87.7474C191.336 87.9389 191.238 88.1164 191.108 88.269C188.675 91.7502 186.617 95.4786 184.967 99.3922C183.776 102.145 181.798 104.557 181.385 107.762C181.228 108.975 180.399 110.376 179.939 111.733C179.324 113.549 178.062 112.045 177.088 111.979C176.934 111.969 176.797 111.517 176.657 111.519C176.058 111.528 175.705 113.054 175.002 111.995C174.048 110.558 173.031 109.202 173.699 107.076C174.758 103.703 176.385 100.659 178.166 97.6725C180.58 93.6229 182.807 89.4314 186.243 86.0898C186.496 85.8437 186.729 85.5731 186.999 85.3482C187.279 85.1158 187.655 84.917 187.954 85.203C188.335 85.5669 188.133 86.0072 187.799 86.282C184.886 88.6678 183.434 92.1086 181.393 95.1215C181.249 95.3618 181.121 95.6107 181.009 95.8668Z" fill="black"/>
<path opacity="0.2" d="M109.134 155.797C110.032 154.949 111.046 154.192 111.799 153.231C112.676 152.11 113.654 151.861 114.89 152.352C115.625 152.642 115.469 153.415 115.398 153.906C115.327 154.511 115.088 155.085 114.707 155.56C114.326 156.036 113.819 156.395 113.244 156.596C112.951 156.704 112.51 156.482 112.512 157.011C112.518 159.593 110.253 160.969 109.279 163.038C108.98 163.673 108.424 164.275 108.034 164.925C106.889 166.824 105.953 168.888 103.527 169.614C102.962 169.783 102.066 170.289 102.371 171.147C103.302 173.767 101.468 175.517 100.427 177.46C98.7155 180.651 96.545 183.582 94.9581 186.851C94.7792 187.22 94.6676 187.744 94.1538 187.616C93.5114 187.456 94.3613 186.886 93.9168 186.549C93.1159 186.976 92.4125 188.126 91.2957 186.769C90.8973 186.284 90.3126 187.104 90.0258 187.618C89.8075 188.01 89.5693 188.379 89.0763 188.091C88.482 187.743 88.9933 187.379 89.1514 187.059C92.0107 181.231 95.5424 175.812 99.2093 170.471L108.893 156.365L109.134 155.797Z" fill="black"/>
<path opacity="0.2" d="M144.265 139.76C143.649 139.939 145.22 137.798 143.541 139.113C143.496 139.148 143.408 139.202 143.387 139.186C142.281 138.328 141.307 138.376 140.294 139.425C140.029 139.701 137.967 137.392 137.923 136.708C137.874 135.699 138.098 134.696 138.57 133.803C141.095 128.777 144.76 124.411 149.272 121.054C151.499 119.376 153.835 119.56 156.167 120.808C157.419 121.479 157.412 122.287 156.372 123.291C155.275 124.35 154.234 125.466 153.252 126.632C152.12 127.976 151.172 129.451 149.925 130.729C148.289 132.406 147.726 134.787 146.535 136.779C145.877 137.877 145.297 138.993 144.265 139.76ZM140.391 135.112C142.371 132.049 144.365 128.99 146.568 126.07C144.056 127.953 141.026 132.325 140.391 135.11V135.112Z" fill="black"/>
<path opacity="0.2" d="M196.145 142.82C195.884 143.709 195.73 144.243 195.489 145.059C195.885 144.751 196.128 144.658 196.201 144.492C196.793 143.137 197.882 143.487 198.74 143.925C199.158 144.155 199.472 144.535 199.619 144.989C199.766 145.443 199.733 145.935 199.528 146.366C198.941 147.867 198.226 149.315 197.391 150.694C196.225 152.574 194.906 154.391 194.113 156.445C193.283 158.59 192.072 160.678 192.59 163.198C192.835 164.389 191.841 165.088 190.753 164.601C190.211 164.388 189.624 164.317 189.047 164.393C185.346 164.578 183.435 161.953 184.873 158.42C186.9 153.44 190.171 149.229 193.578 145.134C194.228 144.353 194.676 143.312 196.145 142.82Z" fill="black"/>
<path opacity="0.2" d="M61.2298 220.602C61.2074 221.93 62.3299 222.577 62.4843 223.639C60.8446 223.863 59.8117 222.975 59.4548 221.143C59.0651 219.154 59.6868 217.325 60.6546 215.738C62.7134 212.365 64.4311 208.797 67.307 205.884C68.4329 204.744 69.211 202.901 70.305 201.522C73.4249 197.59 76.681 193.767 79.8981 189.913C80.5416 189.137 81.3194 188.484 82.1943 187.984C82.386 187.842 82.6192 187.767 82.8578 187.771C83.0964 187.775 83.3271 187.857 83.514 188.005C83.9668 188.369 83.9166 188.835 83.6638 189.283C83.3203 189.968 82.9249 190.627 82.4811 191.252C78.1352 196.774 73.671 202.208 69.4472 207.82C67.7946 210.044 66.5067 212.517 65.6317 215.146C65.2225 216.359 65.6611 217.69 65.7977 218.966C65.835 219.313 66.3197 219.786 65.7051 220.045C64.5244 220.546 63.5355 221.041 64.5742 222.58C64.8104 222.93 64.2738 223.114 63.8999 223.123C63.2321 223.138 62.4627 223.128 62.3843 222.298C62.3125 221.538 61.8809 221.151 61.2298 220.602Z" fill="black"/>
<path opacity="0.2" d="M89.5315 129.914C89.1485 129.642 88.9331 129.59 88.7659 129.997C88.1571 131.479 87.6487 133.024 86.8531 134.402C86.3721 135.232 86.4755 136.95 84.6329 136.449C84.3399 136.37 84.3997 136.74 84.5325 136.947C84.8433 137.435 84.6507 137.794 84.3137 138.205C84.0393 138.541 83.8443 138.935 83.7434 139.356C83.6424 139.778 83.6381 140.217 83.7307 140.641C84.0071 142.414 82.7741 143.277 81.1531 142.55C80.9581 142.463 80.6136 142.167 80.5949 142.29C80.1799 145.178 78.6154 141.348 77.9767 142.746C77.7505 142.557 77.5662 142.324 77.4355 142.06C77.3048 141.796 77.2306 141.508 77.2177 141.213C77.0932 139.778 77.68 138.563 78.346 137.371C80.8692 132.854 84.4847 129.249 88.1919 125.74C89.085 124.894 90.4304 124.849 91.5866 124.508C92.266 124.308 92.6656 124.871 92.9242 125.409C93.2761 126.146 92.8881 126.223 92.2847 126.026C92.205 127.348 91.3401 128.264 90.6305 129.268C90.318 129.713 90.1154 130.248 89.5315 129.914Z" fill="black"/>
<path opacity="0.2" d="M136.139 73.4077C135.622 74.1547 135.991 75.4346 134.36 75.5379C133.181 75.6126 133.394 75.0428 133.393 74.4361C132.379 74.527 132.785 75.7317 131.887 75.9716C131.518 74.3423 132.118 72.7819 132.045 71.2165C132.057 71.1664 132.064 71.1155 132.068 71.0642C133.328 69.9852 133.618 68.3667 134.315 66.9765C134.603 66.4026 134.705 65.7178 135.058 65.1974C137.904 61.0109 140.219 56.4907 143.284 52.4349C145.686 49.2564 147.813 45.8717 150.38 42.8098C151.014 41.9178 151.823 41.1645 152.758 40.5962C151.781 42.3645 151.037 43.7087 150.295 45.055C150.313 45.0018 150.329 44.9471 150.344 44.889C148.386 46.4394 147.588 48.8315 145.911 50.6193C146.484 51.1044 146.656 50.5985 146.932 50.5417C147.403 50.4441 147.694 50.7396 147.876 51.1455C147.966 51.3443 148.145 51.6369 147.828 51.7182C146.421 52.0797 146.759 53.2466 146.718 54.1717C146.672 55.1951 146.116 55.757 145.317 56.2139C144.085 56.9194 143.352 57.9154 143.484 59.4065L142.837 60.3664C141.49 61.0262 139.564 64.2421 139.701 65.6016C138.932 65.641 138.629 67.0956 137.584 66.2984C137.274 65.4381 137.099 65.0306 136.294 66.1017C135.277 67.4554 135.441 69.2972 134.213 70.5065C134.168 70.5457 134.134 70.5954 134.113 70.6512C134.092 70.707 134.085 70.7671 134.093 70.8262C134.101 70.8853 134.123 70.9415 134.158 70.9897C134.193 71.038 134.24 71.0769 134.293 71.1028C134.35 71.1518 134.419 71.1843 134.493 71.197C134.566 71.2096 134.642 71.2018 134.712 71.1745C134.781 71.1472 134.842 71.1014 134.888 71.0421C134.933 70.9827 134.962 70.912 134.97 70.8376C135.186 69.4586 136.287 68.4892 136.62 67.1769C136.761 66.6233 136.911 66.1394 137.634 66.2486C138.073 68.8041 136.106 70.5496 135.431 72.7317C135.342 73.0222 134.258 72.2416 134.651 73.2144C134.719 73.3448 134.818 73.4569 134.939 73.5411C135.06 73.6253 135.199 73.6792 135.345 73.6982C135.491 73.7172 135.639 73.7007 135.778 73.6501C135.916 73.5996 136.04 73.5164 136.139 73.4077ZM142.31 57.3082L141.874 56.9841C141.037 58.3121 140.191 59.6314 139.375 60.9681C139.279 61.1246 139.093 61.4068 139.375 61.5769C139.571 61.6956 139.908 61.7301 139.975 61.4806C140.402 59.897 141.89 58.8886 142.31 57.3082Z" fill="black"/>
<path opacity="0.2" d="M176.413 191.452C176.052 192.448 176.33 193.343 176.65 194.204C176.816 194.658 176.943 195.001 176.401 195.189C175.905 195.362 175.6 195.013 175.425 194.635C175.045 193.69 175.02 192.64 175.354 191.678C176.369 188.171 178.272 185.127 180.619 182.351C181.316 181.528 182.142 180.783 182.687 179.87C183.679 178.21 185.367 177.736 186.976 177.211C187.727 176.965 187.871 177.973 188.025 178.515C188.05 178.718 188.025 178.923 187.953 179.114C187.881 179.304 187.763 179.474 187.61 179.609C184.936 181.358 184.505 184.617 182.691 186.96C182.093 187.732 182.367 189.298 181.595 190.324C180.985 191.134 180.656 192.147 179.52 192.532C178.866 192.755 179.361 193.597 179.066 194.098C178.914 194.354 178.82 194.664 178.498 194.705C178.175 194.747 177.77 194.473 177.829 194.266C178.219 192.885 176.586 192.532 176.413 191.452Z" fill="black"/>
<path opacity="0.2" d="M109.134 155.797L108.89 156.367C106.542 158.437 104.647 160.932 102.808 163.417C100.279 166.833 97.9913 170.443 95.7889 174.082C93.9247 177.164 91.5468 179.934 90.2391 183.366C89.6968 184.871 88.6574 186.147 87.2926 186.982C86.9307 184.884 88.267 183.54 89.0356 182.062C91.0645 178.165 93.6272 174.592 96.1479 171.01C100.695 164.544 104.967 157.86 110.635 152.258C110.959 151.937 111.219 151.497 111.999 151.735C111.49 153.433 109.862 154.324 109.134 155.797Z" fill="black"/>
<path opacity="0.2" d="M177.959 131.043C177.262 131.554 178.083 132.935 177.016 132.709C176.105 132.517 176.435 131.407 176.663 130.703C177.318 128.613 178.387 126.676 179.807 125.009C181.227 123.341 182.968 121.977 184.927 120.998C185.541 120.677 186.431 120.188 186.998 121.095C187.502 121.9 186.722 122.389 186.278 122.892C184.413 125.004 182.645 127.161 182.18 130.072C182.063 130.803 181.47 131.068 180.866 131.314C180.647 131.402 180.452 131.538 180.293 131.712C179.11 133.057 178.217 133.199 177.959 131.043Z" fill="black"/>
<path opacity="0.2" d="M141.45 52.7622C141.254 54.9356 139.397 56.1345 138.387 57.8252C137.64 59.0777 137.029 60.4991 135.833 61.4938C135.535 61.7428 135.418 62.2873 134.926 62.0109C134.834 61.9593 134.755 61.8883 134.694 61.803C134.632 61.7178 134.59 61.6201 134.571 61.517C134.551 61.4138 134.554 61.3076 134.579 61.2057C134.605 61.1038 134.652 61.0087 134.718 60.9269C136.306 58.4091 137.85 55.8606 139.748 53.5544C140.196 53.0104 140.903 53.0253 141.5 52.8045L141.45 52.7622Z" fill="black"/>
<path opacity="0.2" d="M141.5 52.8057C141.278 52.3239 141.021 51.8769 141.424 51.3279C143.711 48.2154 145.952 45.0651 148.603 42.2394C148.808 42.0211 148.922 41.5023 149.385 41.8244C149.679 42.0319 149.606 42.3489 149.405 42.6029C146.813 45.8814 144.297 49.2134 141.943 52.6671C141.876 52.7646 141.618 52.7314 141.45 52.7592L141.5 52.8057Z" fill="black"/>
<path opacity="0.2" d="M132.068 71.0633C132.064 71.1146 132.057 71.1655 132.045 71.2156C131.732 72.0078 131.049 72.6494 131.107 73.596C131.128 73.9334 131.173 74.4128 130.66 74.3679C130.2 74.3264 130.262 73.9023 130.303 73.5379C130.663 70.3072 131.76 67.2868 132.984 64.3117C133.194 63.8016 133.81 63.253 134.371 63.5149C135.035 63.8249 134.535 64.4822 134.299 64.8678C133.126 66.7863 132.616 68.9285 132.068 71.0633Z" fill="black"/>
<path opacity="0.2" d="M150.342 44.8893C150.327 44.9458 150.311 45.0006 150.293 45.0553C151.04 44.2938 152.344 44.0689 152.47 42.6645C152.491 42.4329 153.08 41.5855 153.677 42.1084C154.245 42.6064 153.639 43.1297 153.31 43.4406C151.768 44.8249 150.618 46.5916 149.977 48.5625C149.406 47.8985 148.555 47.4623 149.688 46.6535C150.297 46.2186 150.054 45.4517 150.342 44.8893Z" fill="black"/>
<path opacity="0.2" d="M142.835 60.3664L143.482 59.4065L144.261 58.7939L144.534 58.9836L142.742 62.1791L142.36 62.0546L142.835 60.3664Z" fill="black"/>
<path opacity="0.2" d="M136.831 72.4882C136.483 71.2652 137.375 70.4526 137.842 69.5098C138.301 68.5843 138.835 67.6958 139.336 66.7915C139.424 67.0047 139.459 67.236 139.437 67.4656C139.416 67.6952 139.34 67.9163 139.215 68.11C138.393 69.5542 137.622 71.0266 136.831 72.4882Z" fill="black"/>
</svg>
